<?xml version="1.0" encoding="UTF-8"?><svg id="a" xmlns="http://www.w3.org/2000/svg" xmlns:xlink="http://www.w3.org/1999/xlink" viewBox="0 0 278.04 381.96"><defs><style>.c{fill:url(#b);}.d{fill:#24aae1;}</style><linearGradient id="b" x1="11.87" y1="190.77" x2="278.04" y2="190.77" gradientTransform="matrix(1, 0, 0, 1, 0, 0)" gradientUnits="userSpaceOnUse"><stop offset="0" stop-color="#47fcfe"/><stop offset="1" stop-color="#0a6acb"/></linearGradient></defs><path class="d" d="M278.04,140.72v.13c0,2.87-.13,5.74-.25,8.48-.14,3.26-.4,6.53-.66,9.66-.65,8.09-1.82,16.18-3.39,24.28-4.44,22.71-12.26,44.9-23.1,65.66-4.31,8.23-9.01,16.19-14.23,23.89-19.98,29.63-45.83,53.91-75.72,71.01-10.84,6.4-22.58,11.88-34.59,16.58-6.65,2.48-13.18,4.83-19.98,6.92-20.75,6.4-42.82,10.96-64.22,13.97-1.57,.26-3.14,.39-4.7,.65,0,0,.27-.13,.52-.26,2.09-1.43,4.18-3,6.14-4.44l5.09-3.66c7.44-5.74,13.7-10.97,19.06-16.06,18.41-17.36,31.86-36.03,39.68-55.74l4.18-12.01c4.56-1.05,9.13-2.22,13.58-3.66,3.65-1.04,6.91-2.22,10.44-3.65,6.26-2.35,12.26-5.22,18.01-8.49,19.58-11.09,35.63-28.2,46.61-49.34,8.48-16.06,13.31-33.81,14.09-51.56,.14-1.56,.27-3,.27-4.44,0-9.92-1.57-19.19-4.56-27.54l-.27-.78c-4.83-13.05-13.31-23.89-25.06-32.11-12.14-8.35-26.5-12.79-41.38-12.79-40.33,0-73.1,32.9-73.1,73.23,0,22.84,10.3,43.99,28.45,57.96l1.43,.91c5.62,4.17,11.88,7.57,18.41,9.92l11.23,4.18-3.66,10.71c-3.79,9.27-9.92,18.15-18.41,26.63l-14.88-5.48c-12.4-4.57-24.41-10.97-35.38-19.19l-2.61-1.7C19.98,225.57,0,185.11,0,140.85,0,91.77,25.32,48.43,63.57,23.24,85.9,8.62,112.4,0,140.98,0s56.13,8.49,79.5,24.54c22.84,15.93,39.16,36.55,48.57,61.88l.38,1.43c5.75,16.06,8.62,33.94,8.62,52.87Z"/><path class="c" d="M278.04,140.95c0,2.87-.13,5.74-.26,8.48-.14,3.27-.39,6.53-.66,9.79-.65,8.1-1.82,16.06-3.39,24.15-4.44,22.72-12.26,44.91-23.1,65.8-4.31,8.22-9.01,16.18-14.23,23.89-19.97,29.49-45.83,53.78-75.72,71.01-10.84,6.39-22.58,11.75-34.58,16.58-6.66,2.48-13.19,4.69-19.98,6.91-20.75,6.4-46.99,10.97-68.41,13.97,1.53-.21,3.65-1.95,5.02-2.69,1.95-1.05,3.89-2.1,5.83-3.17,3.65-1.99,7.29-4.01,10.91-6.06,6.94-3.91,13.83-7.9,20.67-11.99,12.5-7.49,24.82-15.29,36.86-23.49,20-13.63,39.32-28.38,57.02-44.9,32.99-30.81,66.11-74.14,61.06-122.29-3.93-37.56-20.09-76.24-52.54-97.69-24.78-16.38-55.75-20.25-84.76-16.75-18.63,2.25-36.66,6.93-53.87,14.55-11.1,4.92-21.77,10.77-32.04,17.25,1.05-2.75,19.59-47,66.05-69.45,1.57-.78,3.26-1.57,4.83-2.22,59.27-27.67,115.01-3.53,137.72,12.14,22.84,15.93,39.16,36.55,48.57,61.88l.38,1.3c5.75,16.06,8.62,34.07,8.62,53Z"/></svg>